<svg width="28" height="28" viewBox="0 0 28 28" fill="none" xmlns="http://www.w3.org/2000/svg">
<circle cx="14" cy="14" r="14" fill="#EDFEED"/>
<path d="M13.05 14.582C13.356 14.474 13.716 14.402 14.076 14.402C15.228 14.402 16.452 15.05 16.452 16.58C16.452 17.75 15.588 18.74 13.986 18.74C12.582 18.74 11.466 17.768 11.394 16.22L9.666 16.616C9.774 18.524 11.304 20.288 14.004 20.288C16.722 20.288 18.234 18.506 18.234 16.544C18.234 14.15 16.344 12.998 14.634 12.998L17.964 9.92V8.336H10.044V9.956H15.624L12.186 13.124L13.05 14.582Z" fill="#025002"/>
</svg>
